<svg width="180" height="40" viewBox="0 0 180 40" fill="none" xmlns="http://www.w3.org/2000/svg">
<g clip-path="url(#clip0_779_1334)">
<rect x="0.80127" y="0.532715" width="39.0515" height="39.0515" rx="7.8842" fill="#9B2020"/>
<circle cx="20.327" cy="20.0585" r="19.5258" fill="#9B2020"/>
<path d="M11.6038 38.3954L11.7572 13.7961C11.763 12.8747 13.0112 12.5961 13.4082 13.4277L22.4316 32.3303" stroke="white" stroke-width="1.15708"/>
<path d="M28.0279 2.07903L27.8654 28.1536C27.8596 29.075 26.6113 29.3536 26.2144 28.522L17.1909 9.61942" stroke="white" stroke-width="1.15708"/>
<path d="M13.9443 10.7886L24.0543 31.7084" stroke="white" stroke-width="1.15708"/>
<path d="M15.0527 9.28711L25.5921 30.9328" stroke="white" stroke-width="1.15708"/>
<path d="M16.8467 9.15576L26.1575 28.335" stroke="white" stroke-width="1.15708"/>
<path d="M21.2544 12.4526L13.7625 12.4059L11.5342 7.9082L18.9972 7.95474L21.2544 12.4526Z" fill="#9B2020"/>
<path d="M29.075 34.0218L22.4387 33.9804L19.7881 29.5669L26.499 29.6087L29.075 34.0218Z" fill="#9B2020"/>
<path d="M13.5205 13.5601L13.5205 35.7653" stroke="white" stroke-width="1.15708"/>
<path d="M26.1016 28.3926L26.1016 4.93004" stroke="white" stroke-width="1.15708"/>
<path d="M24.3306 24.5044L24.4786 0.75576" stroke="white" stroke-width="1.15708"/>
<path d="M24.3306 24.5044L24.4786 0.75576" stroke="white" stroke-width="1.15708"/>
<path d="M15 39L15.1481 16.9999" stroke="white" stroke-width="1.15708"/>
<path d="M17.0625 21.0439L17.0625 33.4786" stroke="white" stroke-width="1.15708"/>
<path d="M22.5601 20.9053L22.5601 2.4114" stroke="white" stroke-width="1.15708"/>
<path d="M12.6816 13.8447L18.5067 26.0596" stroke="#9B2020" stroke-width="0.578541"/>
<path d="M26.9717 28.1084L21.1177 15.8934" stroke="#9B2020" stroke-width="0.578541"/>
<mask id="mask0_779_1334" style="mask-type:alpha" maskUnits="userSpaceOnUse" x="12" y="6" width="10" height="30">
<path d="M21.2233 20.5441L12.4075 6.20334C12.3159 6.05433 12.0863 6.11906 12.0861 6.29397L12.0641 20.8305C12.064 20.8603 12.0716 20.8895 12.0861 20.9155L20.2722 35.5568C20.3575 35.7094 20.5894 35.6544 20.5971 35.4797L21.2489 20.6427C21.2504 20.608 21.2415 20.5737 21.2233 20.5441Z" fill="#042D21"/>
</mask>
<g mask="url(#mask0_779_1334)">
<path opacity="0.44" d="M17.6449 24.8646L12.9334 15.0288L12.9336 31.857L17.6449 36.4565L17.6449 24.8646Z" fill="#1F1F1F"/>
</g>
<mask id="mask1_779_1334" style="mask-type:alpha" maskUnits="userSpaceOnUse" x="18" y="6" width="10" height="30">
<path d="M18.4378 21.4441L27.2537 35.7849C27.3453 35.9339 27.5748 35.8692 27.5751 35.6943L27.5971 21.1577C27.5971 21.128 27.5895 21.0987 27.575 21.0728L19.3889 6.43146C19.3036 6.27887 19.0717 6.33389 19.0641 6.50854L18.4123 21.3456C18.4107 21.3803 18.4196 21.4146 18.4378 21.4441Z" fill="#042D21"/>
</mask>
<g mask="url(#mask1_779_1334)">
<path opacity="0.44" d="M21.981 17.0202L26.7308 26.9587L26.731 10.1067L21.981 5.4494L21.981 17.0202Z" fill="#1F1F1F"/>
</g>
</g>
<defs>
<clipPath id="clip0_779_1334">
<rect x="0.80127" y="0.532715" width="39.0515" height="39.0515" rx="7.8842" fill="white"/>
</clipPath>
</defs>
<text x="50" y="28" font-family="Arial" font-size="24" fill="#474747">Nstream AI</text>
</svg> 